<?xml version="1.0" encoding="UTF-8"?>
<svg id="Capa_1" data-name="Capa 1" xmlns="http://www.w3.org/2000/svg" viewBox="0 0 800 800">
  <defs>
    <style>
      .cls-1 {
        font-family: TheRichland-Bold, 'The Richland';
        font-size: 200px;
        font-weight: 700;
      }

      .cls-1, .cls-2 {
        fill: #fff;
      }

      .cls-2 {
        stroke-width: 0px;
      }
    </style>
  </defs>
  <path class="cls-2" d="M400,0C179.44,0,0,179.44,0,400s179.44,400,400,400,400-179.44,400-400S620.56,0,400,0ZM748.97,465.37l-218.17-218.17h189.62c22.17,46.3,34.6,98.12,34.6,152.8,0,22.33-2.09,44.17-6.06,65.37ZM548.88,460.44l-92.35,92.35h-123.73l-89.51-89.51v-118.87c.42-.36.84-.72,1.24-1.12l96.09-96.09h126.58l81.68,81.68v131.56ZM694.7,202.23h-309.11l135.86-135.86c71.09,25.96,131.63,74.03,173.25,135.86ZM471.93,52.3l-156.52,156.52-64.29,64.29V77.75c45.31-21.02,95.74-32.77,148.88-32.77,24.64,0,48.69,2.53,71.93,7.33ZM198.32,107.99v310.33l-133.98-133.98c24.9-72.07,72.4-133.68,133.98-176.34ZM51.03,334.63l153.87,153.87,64.29,64.29H79.57c-22.17-46.3-34.6-98.12-34.6-152.8,0-22.33,2.09-44.17,6.06-65.37ZM105.3,597.77h306.26l-135.08,135.08c-70.2-26.13-129.96-73.86-171.18-135.08ZM328.07,747.7l156.52-156.52c2.3-2.3,4-5.03,5.11-7.95l59.19-59.19v198.21c-45.31,21.01-95.74,32.77-148.88,32.77-24.64,0-48.69-2.53-71.93-7.33ZM593.86,697.28v-315.6l139.77,139.77c-26.5,72.58-76.07,134.15-139.77,175.83Z"/>
  <text class="cls-1" transform="translate(348.24 465.37)"><tspan x="0" y="0">i</tspan></text>
</svg>